# xmcd CD database file generated by OrangeCD 5.2
#
# Track frame offsets:
#	150
#	18928
#	41565
#	58803
#	65999
#	74506
#	91247
#	107988
#	118428
#	130350
#	140361
#	150375
#	163884
#	182015
#
# Disc length: 2524 seconds
#
# Revision: 0
# Processed by: cddbd v1.5.1PL0 Copyright (c) Steve Scherf et al.
# Submitted via: OrangeCD 5.2
#
DISCID=d309da0e
DTITLE=Woody Boyd - Capay Cowboy
DYEAR=1997
DGENRE=Country
TTITLE0=Lullabye to the moon
TTITLE1=hang it on the wall
TTITLE2=silver band
TTITLE3=taylor
TTITLE4=shot of midnight
TTITLE5=love in the bank
TTITLE6=pennies at the cross
TTITLE7=lost highway
TTITLE8=ebonic tabo's
TTITLE9=lonestar
TTITLE10=your light
TTITLE11=molly's song
TTITLE12=baroom 2 baroom
TTITLE13=grandma
EXTD=
EXTT0=
EXTT1=
EXTT2=
EXTT3=
EXTT4=
EXTT5=
EXTT6=
EXTT7=
EXTT8=
EXTT9=
EXTT10=
EXTT11=
EXTT12=
EXTT13=
PLAYORDER=
